<svg width="640" height="760" viewBox="0 0 640 760" fill="none" xmlns="http://www.w3.org/2000/svg">
  <rect width="640" height="760" rx="48" fill="#FFF6E8"/>
  <circle cx="320" cy="240" r="170" fill="#FFD54A" fill-opacity="0.28"/>
  <circle cx="320" cy="232" r="120" fill="#FFE8B2"/>
  <path d="M240 472C240 417.876 283.876 374 338 374H346C400.124 374 444 417.876 444 472V598H240V472Z" fill="#FF8A00"/>
  <path d="M256 604H428C456.719 604 480 627.281 480 656V760H204V656C204 627.281 227.281 604 256 604Z" fill="#111827"/>
  <circle cx="320" cy="216" r="82" fill="#F3C8A6"/>
  <path d="M238 210C238 150.353 286.353 102 346 102H352C395.078 102 430 136.922 430 180V196H238V210Z" fill="#111827"/>
  <circle cx="286" cy="218" r="8" fill="#111827"/>
  <circle cx="352" cy="218" r="8" fill="#111827"/>
  <path d="M294 256C308.667 268 329.333 268 344 256" stroke="#111827" stroke-width="8" stroke-linecap="round"/>
  <rect x="268" y="434" width="148" height="96" rx="28" fill="#FFD54A"/>
  <rect x="290" y="456" width="104" height="20" rx="10" fill="#111827" fill-opacity="0.14"/>
</svg>
